<?xml version="1.0" encoding="UTF-8"?>
<svg xmlns="http://www.w3.org/2000/svg" version="1.1" width="300" height="300" viewBox="0 0 300 300"><rect x="0" y="0" width="300" height="300" fill="#ffffff"/><g transform="scale(14.286)"><g transform="translate(0,0)"><path fill-rule="evenodd" d="M10 0L10 1L8 1L8 2L10 2L10 3L8 3L8 4L9 4L9 5L8 5L8 7L9 7L9 8L6 8L6 9L5 9L5 8L0 8L0 10L1 10L1 11L2 11L2 10L3 10L3 12L1 12L1 13L3 13L3 12L4 12L4 13L7 13L7 12L6 12L6 11L8 11L8 12L9 12L9 11L8 11L8 10L10 10L10 9L9 9L9 8L10 8L10 7L11 7L11 6L12 6L12 7L13 7L13 4L12 4L12 2L13 2L13 0L12 0L12 2L11 2L11 0ZM10 3L10 5L9 5L9 7L10 7L10 6L11 6L11 5L12 5L12 4L11 4L11 3ZM11 8L11 9L12 9L12 10L11 10L11 11L10 11L10 14L9 14L9 13L8 13L8 15L9 15L9 16L8 16L8 21L11 21L11 19L12 19L12 21L15 21L15 20L16 20L16 21L17 21L17 20L19 20L19 21L20 21L20 20L19 20L19 19L17 19L17 20L16 20L16 19L15 19L15 20L13 20L13 19L14 19L14 18L11 18L11 17L10 17L10 15L11 15L11 16L12 16L12 17L14 17L14 15L13 15L13 13L14 13L14 11L13 11L13 10L14 10L14 8ZM15 8L15 9L16 9L16 10L17 10L17 12L16 12L16 11L15 11L15 12L16 12L16 13L15 13L15 14L16 14L16 13L19 13L19 14L18 14L18 15L15 15L15 16L17 16L17 17L15 17L15 18L19 18L19 17L21 17L21 15L19 15L19 14L21 14L21 13L20 13L20 12L21 12L21 11L20 11L20 12L19 12L19 10L21 10L21 9L20 9L20 8L19 8L19 10L17 10L17 9L18 9L18 8L17 8L17 9L16 9L16 8ZM3 9L3 10L4 10L4 12L5 12L5 10L4 10L4 9ZM6 9L6 10L8 10L8 9ZM11 11L11 12L13 12L13 11ZM18 16L18 17L19 17L19 16ZM9 17L9 18L10 18L10 19L11 19L11 18L10 18L10 17ZM0 0L0 7L7 7L7 0ZM1 1L1 6L6 6L6 1ZM2 2L2 5L5 5L5 2ZM14 0L14 7L21 7L21 0ZM15 1L15 6L20 6L20 1ZM16 2L16 5L19 5L19 2ZM0 14L0 21L7 21L7 14ZM1 15L1 20L6 20L6 15ZM2 16L2 19L5 19L5 16Z" fill="#000000"/></g></g></svg>
